<svg xmlns="http://www.w3.org/2000/svg" viewBox="0 0 48 48">
  <path fill="#EA4335" d="M24 9.5c3.54 0 6.72 1.22 9.22 3.6l6.9-6.9C35.9 2.38 30.47 0 24 0 14.62 0 6.51 5.38 2.56 13.22l8.04 6.24C12.45 13.05 17.77 9.5 24 9.5z"/>
  <path fill="#4285F4" d="M46.98 24.55c0-1.57-.14-3.08-.4-4.55H24v9.02h12.94c-.56 3.01-2.25 5.56-4.78 7.28l7.73 6c4.52-4.18 7.09-10.34 7.09-17.75z"/>
  <path fill="#FBBC05" d="M10.6 28.46a14.5 14.5 0 0 1 0-8.92l-8.04-6.24C.92 16.55 0 20.18 0 24c0 3.82.92 7.45 2.56 10.7l8.04-6.24z"/>
  <path fill="#34A853" d="M24 48c6.48 0 11.92-2.13 15.9-5.78l-7.73-6c-2.14 1.44-4.9 2.28-8.17 2.28-6.23 0-11.55-3.55-13.4-8.54l-8.04 6.24C6.51 42.62 14.62 48 24 48z"/>
</svg>
